<svg width="75" height="54" viewBox="0 0 75 54" fill="none" xmlns="http://www.w3.org/2000/svg">
<path fill-rule="evenodd" clip-rule="evenodd" d="M48.1903 22.3701C48.6799 22.016 49.1441 22.2184 49.368 22.3174C50.3211 22.7236 50.6851 23.5524 50.8934 24.2295C51.232 25.3075 51.5504 26.2712 52.0555 27.1201C54.717 31.573 58.7067 33.7712 63.8993 33.667C64.7013 33.6462 65.6331 33.5777 66.4872 33.1768C67.1226 32.8799 67.4305 32.557 67.5399 32.0674C67.6491 31.5937 67.4927 31.4371 67.326 31.3174C67.1646 31.1977 66.9349 31.1092 66.5028 31.3486C66.2894 31.4684 66.1593 31.6822 65.9667 32.0205C65.9146 32.1142 65.857 32.208 65.7997 32.3018C65.4924 32.807 64.9667 33.6507 63.9042 33.5361C62.6909 33.4007 62.3258 32.2661 62.1903 31.8389C62.0549 31.4223 62.0446 30.9949 62.1591 30.4951C62.8153 27.516 65.3003 25.5472 68.4774 25.4795C70.7638 25.4223 72.4823 26.6563 73.1542 28.8438C73.8781 31.2135 73.5035 33.5264 72.0399 35.7139L71.9247 35.875C71.7997 36.0624 71.675 36.2396 71.6073 36.4062C71.4459 36.7811 71.4928 36.8335 71.8153 36.9688C72.7891 37.3801 73.1281 38.2289 73.2948 38.833C73.8156 40.6715 73.5914 42.4271 72.6434 44.0469C72.2582 44.6978 72.3056 44.9841 72.868 45.4424C73.6596 46.083 74.2274 46.9321 74.5555 47.958C75.2639 50.1872 74.2059 52.7288 72.2372 53.5049C71.8883 53.6454 71.5395 53.7139 71.2167 53.7139C70.5344 53.7138 69.967 53.4163 69.7118 52.8799C69.4358 52.2966 69.3213 51.4117 70.3212 50.5107C70.6337 50.2295 71.0028 49.8122 70.9872 49.4268C70.9661 49.0363 70.5496 48.6562 70.2059 48.4062C69.7529 48.0782 69.2683 47.7607 68.7997 47.4482C68.3831 47.1774 67.9617 46.9007 67.5555 46.6143C66.6337 45.9632 65.0922 44.8751 65.3368 42.792C65.3368 42.7712 65.3313 42.7552 65.326 42.7344L65.3153 42.6719C65.2737 42.4484 65.2013 42.3391 65.1493 42.3076C65.1024 42.2868 64.9875 42.2809 64.7948 42.3486C64.5813 42.432 64.3622 42.5573 64.1278 42.6875C64.0342 42.7447 63.9402 42.7969 63.8466 42.8438C60.6384 44.578 57.6694 44.9638 54.7684 44.0107C54.7893 44.396 54.8309 44.7814 54.8778 45.1875C54.9091 45.4531 54.9406 45.7139 54.9667 45.9795C55.1073 47.5628 55.1958 49.4015 54.4042 51.1826C53.6489 52.8647 51.7322 53.8545 50.1229 53.3857C49.7114 53.2712 48.6177 52.9531 48.4823 51.7969C48.3469 50.6563 49.3785 50.2396 49.8212 50.0625C50.2065 49.9062 50.4563 49.6718 50.4198 49.0312C50.4042 48.7136 50.3674 48.3909 50.3309 48.0732C50.3101 47.865 50.2893 47.6565 50.2684 47.4482C50.2372 47.0732 50.1805 46.6976 50.118 46.3018C49.9462 45.2498 49.7737 44.1613 50.0966 43.0156C50.1643 42.7813 50.1752 42.7447 49.8837 42.5C47.6076 40.6094 44.6851 37.5101 45.6278 32.4893C45.8985 31.0519 45.4402 30.2552 43.9247 29.5469L43.6434 29.417C43.003 29.1306 42.2846 28.8021 41.743 28.1514C41.4878 27.8441 41.1643 27.3747 41.3153 26.833C41.4821 26.2394 42.1285 26.0153 42.3368 25.9424C42.8419 25.7706 43.3679 25.6774 43.951 25.6514C44.5134 25.6201 44.774 25.5105 45.0135 25.1826C45.7739 24.1463 46.8206 23.6724 47.8934 23.8857C47.8883 23.8651 47.8886 23.8493 47.8885 23.8389L47.8778 23.7236C47.8778 23.6925 47.8781 23.6558 47.8729 23.6299C47.6025 22.9742 47.8936 22.5785 48.1903 22.3701ZM49.1805 23.7188C49.217 24.1302 49.2528 24.6198 48.8622 24.9688C48.4924 25.2914 48.0031 25.234 47.6698 25.1611C46.9355 25.005 46.3885 25.5052 46.0604 25.9531C45.4563 26.7707 44.6857 26.917 44.0087 26.9482C43.5504 26.9639 43.144 27.0365 42.7587 27.1719C42.7171 27.1875 42.6805 27.1976 42.6493 27.208C42.6753 27.2445 42.7007 27.2764 42.7372 27.3232C43.0861 27.745 43.6175 27.9792 44.1747 28.2344L44.4716 28.3701C46.5132 29.318 47.2844 30.7087 46.9042 32.7295C46.2689 36.0835 47.4463 38.7918 50.7118 41.5C51.1805 41.8854 51.6174 42.4119 51.3466 43.3701C51.102 44.2397 51.2431 45.1406 51.3993 46.0986C51.4618 46.4997 51.524 46.917 51.5604 47.3389C51.5812 47.5367 51.6021 47.7345 51.6229 47.9375C51.6594 48.2759 51.6958 48.6144 51.7167 48.958C51.7948 50.3641 50.993 50.9895 50.3055 51.2656C49.7544 51.4892 49.7581 51.5675 49.7684 51.6455C49.7841 51.7965 49.8574 51.9583 50.4823 52.1406C51.4614 52.4218 52.7374 51.7293 53.2167 50.6514C53.8208 49.3076 53.8309 47.8594 53.6747 46.0938C53.6487 45.8439 53.6229 45.5888 53.5917 45.3389C53.5396 44.891 53.4875 44.4268 53.4667 43.958C53.4407 43.3176 53.7379 42.9948 53.9149 42.8594C54.092 42.7292 54.4721 42.5363 55.0604 42.7393C57.675 43.6299 60.274 43.302 63.2323 41.7031C63.3155 41.6563 63.404 41.6096 63.4872 41.5576C63.7527 41.4118 64.0293 41.2503 64.3417 41.1357C64.6125 41.0368 64.8521 40.9951 65.0604 40.9951C65.3726 40.9951 65.6174 41.0831 65.7841 41.1768C66.0757 41.3434 66.4461 41.6926 66.5868 42.4268C66.618 42.5726 66.6538 42.7344 66.6278 42.9219C66.4872 44.0467 67.0813 44.6874 68.2997 45.5518C68.7006 45.833 69.1074 46.0987 69.5135 46.3643C69.9927 46.682 70.4875 47.0055 70.9667 47.3545C71.8 47.9586 72.2427 48.6354 72.2792 49.3594C72.3156 50.0833 71.9511 50.7972 71.1854 51.4795C70.7326 51.8856 70.7847 52.1146 70.8837 52.3281C70.9203 52.4062 71.2638 52.4947 71.7635 52.2969C73.0968 51.7709 73.8209 49.9273 73.3212 48.3545C73.066 47.5629 72.6544 46.9375 72.0555 46.4531C70.993 45.5938 70.8212 44.5937 71.5243 43.3906C72.2899 42.0886 72.4663 40.6718 72.0497 39.1875C71.8882 38.6147 71.675 38.3174 71.3104 38.1611C70.3107 37.7393 69.9823 36.9167 70.4091 35.9014C70.534 35.6099 70.706 35.3596 70.8622 35.1357L70.9618 34.9893C72.2168 33.1144 72.5295 31.2287 71.9149 29.2236C71.4097 27.5884 70.2319 26.7451 68.5028 26.7764C65.9458 26.8338 63.9508 28.401 63.4247 30.7705C63.3622 31.0463 63.3675 31.2498 63.4247 31.4424C63.6486 32.1454 63.8469 32.2243 64.0448 32.2451C64.2479 32.2659 64.3783 32.1407 64.701 31.6201C64.7479 31.542 64.7948 31.458 64.8417 31.3799C65.0603 30.9946 65.3366 30.5107 65.8778 30.2139C66.8725 29.6618 67.6226 29.9379 68.0809 30.2607C68.5497 30.5941 69.0608 31.2347 68.8055 32.3545C68.5398 33.5314 67.6642 34.0628 67.0341 34.3545C65.9561 34.8595 64.8048 34.943 63.9247 34.9639C58.2218 35.0835 53.8569 32.6665 50.9403 27.7812C50.3623 26.8126 50.0135 25.7756 49.6542 24.6143C49.524 24.1926 49.3784 23.9062 49.1805 23.7188Z" fill="#100F0D"/>
<path fill-rule="evenodd" clip-rule="evenodd" d="M26.1805 34.2549L16.2479 39.2295L16.1493 38.2969C15.8837 35.7761 17.6903 31.0986 20.2684 27.6455L20.7948 26.9482L26.1805 34.2549ZM20.7997 29.1406C19.0289 31.75 17.675 35.0261 17.451 37.1719L24.2167 33.7861L20.7997 29.1406Z" fill="#100F0D"/>
<path fill-rule="evenodd" clip-rule="evenodd" d="M12.8778 15.3389C16.9455 12.8232 21.1278 13.6878 23.7841 17.5889C24.9507 19.3024 26.1389 21.1667 27.5243 23.4531C27.5971 23.578 27.6542 23.6615 27.701 23.7188C27.7531 23.6667 27.8313 23.5833 27.9354 23.4531C29.3833 21.6667 30.9201 19.9059 32.3993 18.208L33.2587 17.2188C35.0242 15.1928 37.1487 14.8075 38.9403 16.1875C39.758 16.8229 40.2534 17.6508 40.368 18.583C40.5087 19.7132 40.0966 20.9268 39.1747 22.0986C38.0237 23.5673 36.8833 25.0831 35.7792 26.5518C33.8729 29.0934 31.8986 31.7139 29.7841 34.1982L33.1493 36.7393C36.9513 39.609 40.774 42.4945 44.5917 45.3799C45.5865 46.1247 46.5712 46.9795 46.7743 48.4482C47.0397 50.3855 46.3991 51.8855 44.9305 52.7812C44.1753 53.2448 43.4038 53.4736 42.6278 53.4736C41.7165 53.4735 40.7995 53.161 39.9091 52.5361C38.5238 51.5675 37.1381 50.6096 35.7528 49.6514C32.9976 47.7504 30.1545 45.7861 27.3993 43.7861C26.618 43.2184 26.2216 43.2764 25.4247 43.7295C23.7217 44.7086 21.9821 45.6671 20.2948 46.5889C17.3574 48.2034 14.3204 49.8702 11.4403 51.667C8.96661 53.2187 6.11782 53.3958 3.82117 52.1514C1.45658 50.8701 0.0659597 48.3538 0.00866772 45.2549C-0.184001 35.2655 2.83633 26.3384 8.97156 18.7188C9.99749 17.4428 11.3103 16.3075 12.8778 15.3389ZM22.7167 18.3232C20.4146 14.9535 17.0813 14.2653 13.5604 16.4424C12.1177 17.333 10.9146 18.3747 9.9823 19.5361C4.03959 26.9111 1.12325 35.5573 1.30554 45.2344C1.35246 47.8488 2.49771 49.9587 4.44031 51.0107C6.32052 52.0316 8.68054 51.8643 10.7587 50.5674C13.6648 48.7498 16.7168 47.0728 19.6698 45.4531C21.352 44.5313 23.0918 43.5732 24.7792 42.6045C25.3312 42.292 25.8573 42.0781 26.4198 42.0781C26.951 42.0781 27.5133 42.2709 28.1591 42.7344C30.9037 44.7239 33.7425 46.6873 36.4872 48.583C37.8778 49.5413 39.2691 50.5052 40.6493 51.4688C41.8887 52.3331 43.0655 52.4005 44.2528 51.6768C45.2788 51.0466 45.6851 50.052 45.4872 48.625C45.3518 47.6459 44.6801 47.068 43.8104 46.417C39.9928 43.5317 36.17 40.6461 32.368 37.7764L27.8934 34.3955L28.3524 33.8701C30.6128 31.2712 32.7118 28.4736 34.743 25.7705C35.8523 24.2967 36.998 22.7759 38.1542 21.2969C38.8572 20.4064 39.1797 19.5211 39.0809 18.7451C39.008 18.1515 38.696 17.6354 38.1493 17.2188C36.5868 16.0052 35.1591 17.016 34.2372 18.0732L33.3778 19.0625C31.904 20.7498 30.3783 22.4999 28.9462 24.2705C28.5764 24.7236 28.17 25.1408 27.6024 25.1045C27.0504 25.0628 26.7066 24.6093 26.4149 24.125C25.04 21.8595 23.8677 20.0159 22.7167 18.3232Z" fill="#100F0D"/>
<path fill-rule="evenodd" clip-rule="evenodd" d="M28.1796 0C33.0129 0 36.8046 3.87012 36.8046 8.80762C36.8096 13.4793 32.9714 17.3024 28.2528 17.3232H28.201C25.8417 17.3232 23.6431 16.4216 22.0077 14.7861C20.3725 13.1507 19.4768 10.9582 19.4872 8.60938C19.5132 3.86468 23.4089 0.00015739 28.1796 0ZM28.1796 1.29688C24.1225 1.29703 20.8051 4.58325 20.7841 8.61426C20.7736 10.6143 21.5341 12.4795 22.9247 13.8701C24.3256 15.271 26.2058 16.0211 28.2421 16.0264C32.2524 16.0055 35.5127 12.771 35.5077 8.80762C35.5077 4.59928 32.2889 1.29688 28.1796 1.29688Z" fill="#100F0D"/>
</svg>
