<svg width="58" height="59" viewBox="0 0 58 59" fill="none" xmlns="http://www.w3.org/2000/svg">
<path d="M23.4736 20.079C24.1975 20.079 24.7811 20.6677 24.7812 21.3915C24.7812 22.1155 24.1976 22.704 23.4736 22.704C22.755 22.7039 22.167 22.1154 22.167 21.3915C22.1671 20.6678 22.7551 20.0792 23.4736 20.079Z" fill="black"/>
<path d="M29.875 20.079C30.5937 20.079 31.1825 20.6677 31.1826 21.3915C31.1826 22.1155 30.5938 22.704 29.875 22.704C29.151 22.704 28.5674 22.1155 28.5674 21.3915C28.5675 20.6677 29.1511 20.079 29.875 20.079Z" fill="black"/>
<path fill-rule="evenodd" clip-rule="evenodd" d="M48.125 0.292908C48.5156 -0.0976768 49.1455 -0.0975949 49.5361 0.292908C49.9216 0.683533 49.9216 1.31927 49.5361 1.7099L48.3643 2.88177C50.4579 5.56927 50.4684 9.35577 48.3955 12.0536L49.5576 13.2929C49.7294 13.4804 49.8281 13.7253 49.8281 13.9804V39.0322H53.8174C54.8747 39.0322 55.8857 39.454 56.6357 40.204C57.3805 40.954 57.8017 41.975 57.8018 43.0322C57.8018 43.3707 57.7601 43.7047 57.6768 44.0224V44.038C57.6456 44.1523 57.6096 44.2668 57.5732 44.3759C57.2347 45.4801 56.0212 49.4391 55.0264 52.9286C54.1669 55.9545 51.4058 58.0429 48.2705 58.0429H9.53125C6.39599 58.0429 3.6411 55.9544 2.77637 52.9286C1.7876 49.4419 0.163731 44.161 0.129883 44.038L0.125 44.0224C0.046876 43.7047 0 43.3707 0 43.0322C6.52272e-05 41.975 0.421933 40.954 1.17188 40.204C1.91658 39.4542 2.93214 39.0323 3.98926 39.0322H17.9424C17.9683 39.0322 17.9945 39.0329 18.0205 39.038C18.6298 36.3559 19.5934 34.4388 20.2393 33.4023C18.8904 32.5221 18 30.9959 18 29.2617V28.9179C16.2604 28.7512 14.3125 28.0165 13.4531 26.2665C12.8178 24.9853 12.7188 23.0789 13.9375 20.329C17.8646 11.4542 23.7136 11.1835 26.8281 12.9804C27.7031 12.4752 28.792 12.1318 29.9951 12.1005L32.0361 10.0478C32.4267 9.65726 33.0569 9.65745 33.4424 10.0478C33.833 10.4384 33.833 11.0742 33.4424 11.4648L32.4531 12.4648C33.3177 12.746 34.2031 13.2047 35.0781 13.8818L35.4639 13.4911C35.8545 13.1005 36.4847 13.1005 36.8701 13.4911C37.2603 13.8817 37.2603 14.5166 36.8701 14.9072L36.542 15.2411C37.1356 15.8921 37.7133 16.658 38.2705 17.5536L38.8906 16.9335C39.2813 16.5429 39.9115 16.5429 40.2969 16.9335C40.6875 17.3242 40.6875 17.9599 40.2969 18.3505L39.4531 19.1992C39.3958 19.2564 39.3281 19.3089 39.2656 19.3505C39.4166 19.6628 39.5727 19.9907 39.7236 20.329C40.9424 23.079 40.8382 24.9853 40.208 26.2665C39.3486 28.0061 37.4163 28.7464 35.6768 28.913V29.2617C35.6767 30.8814 34.901 32.3138 33.7031 33.2148C33.9739 33.47 34.2503 33.7724 34.5264 34.1318C35.3804 35.2255 36.2764 36.8606 36.8857 39.0322H47.833V14.3759L46.3389 12.7773L37.208 3.61029C36.8178 3.21976 36.8178 2.58484 37.208 2.19427C39.8642 -0.472293 44.0205 -0.707156 46.9424 1.48529L48.125 0.292908ZM54.708 46.9335C54.4164 47.0012 54.1194 47.038 53.8174 47.038H3.98926C3.68729 47.038 3.38531 47.0012 3.09375 46.9335C3.5833 48.5532 4.16637 50.5323 4.69238 52.3759C5.31217 54.5478 7.28646 56.0429 9.53125 56.0429H48.2705C50.5205 56.0429 52.4948 54.5478 53.1094 52.3759C53.6354 50.5323 54.2237 48.5532 54.708 46.9335ZM26.8389 32.2411C26.7035 32.4234 26.5569 32.5953 26.3955 32.7568C25.4737 33.6783 24.224 34.1991 22.917 34.1992C22.6514 34.1992 22.3958 34.1783 22.1406 34.1367C21.3646 35.2044 19.2657 39.0637 19.4531 45.0009V45.038H21.9893C22.3017 42.0175 23.0365 40.5276 23.5312 39.5693C23.7864 39.0798 24.3904 38.8866 24.8799 39.1415C25.3643 39.3967 25.557 40.0016 25.3018 40.4911C24.8799 41.3037 24.2763 42.5593 23.9951 45.038H30.6094C30.4688 43.4289 29.9375 41.2935 29.5156 40.5068C29.2605 40.0173 29.4426 39.4076 29.9268 39.1523C30.4111 38.8919 31.0159 39.0739 31.2764 39.5634C31.7816 40.5113 32.4482 43.1266 32.6045 45.038H35.6768C35.6559 44.9599 35.6455 44.8811 35.6455 44.7978C35.6455 40.85 34.625 37.954 33.5 36.1415C32.8439 35.0897 32.1979 34.4235 31.7188 34.2099C31.6719 34.1891 31.6249 34.163 31.5781 34.1318C31.3126 34.1786 31.0367 34.1991 30.7607 34.1992C29.4535 34.1992 28.2031 33.6785 27.2812 32.7568C27.1199 32.5954 26.9742 32.4233 26.8389 32.2411ZM37.9014 21.1415C34.5523 13.5687 19.1143 13.5531 15.7549 21.1415C14.8851 23.1103 14.7861 24.4599 15.2393 25.3818C15.7657 26.4541 19.667 23.4072 19.667 23.4072C20.0368 22.996 20.6671 22.9652 21.0732 23.3349C21.4843 23.7047 21.5152 24.3347 21.1455 24.746C21.129 24.7648 19.9951 26.062 19.9951 27.9492V29.2617C19.9952 30.8866 21.3024 32.1992 22.917 32.1992C23.6929 32.1991 24.4376 31.8866 24.9844 31.3398C25.4375 30.8867 25.724 30.303 25.8125 29.6728L24.917 28.5947C24.6514 28.2717 24.5934 27.829 24.7705 27.454C24.9424 27.0791 25.3229 26.8349 25.7344 26.8349H27.9424C28.3538 26.8349 28.7343 27.0792 28.9062 27.454C29.0833 27.8289 29.0262 28.2718 28.7607 28.5947L27.8643 29.6728C27.9528 30.3029 28.2393 30.8867 28.6924 31.3398C29.2393 31.8867 29.9847 32.1992 30.7607 32.1992C32.3751 32.199 33.6826 30.8865 33.6826 29.2617V27.9492C33.6826 25.8617 32.2983 24.9479 32.2764 24.9335C31.8077 24.6471 31.6561 24.0325 31.9424 23.5585C32.2236 23.0846 32.8389 22.9332 33.3076 23.2197C33.3325 23.2372 37.8965 26.4404 38.4219 25.3818C38.875 24.4599 38.7764 23.1103 37.9014 21.1415Z" fill="black"/>
<path d="M40.3174 29.9755C40.9215 29.9755 41.4169 30.4698 41.417 31.079C41.417 31.6832 40.9215 32.1786 40.3174 32.1786C39.7134 32.1785 39.2236 31.6831 39.2236 31.079C39.2238 30.4699 39.7134 29.9757 40.3174 29.9755Z" fill="black"/>
<path d="M44.1094 20.079C44.7187 20.079 45.208 20.5693 45.208 21.1786C45.2078 21.7878 44.7186 22.2773 44.1094 22.2773C43.5053 22.2773 43.0158 21.7878 43.0156 21.1786C43.0156 20.5693 43.5052 20.079 44.1094 20.079Z" fill="black"/>
<path d="M42.0576 13.3867C42.443 12.9962 43.0785 12.9961 43.4639 13.3867C43.8543 13.7773 43.8544 14.4131 43.4639 14.8036L42.6143 15.6523C42.2288 16.0427 41.5934 16.0428 41.208 15.6523C40.8176 15.2618 40.8178 14.6318 41.208 14.2411L42.0576 13.3867Z" fill="black"/>
<path d="M14.8486 11.1161C15.458 11.1161 15.9482 11.6106 15.9482 12.2148C15.9482 12.8241 15.458 13.3193 14.8486 13.3193C14.2446 13.3191 13.7549 12.824 13.7549 12.2148C13.7549 11.6107 14.2446 11.1163 14.8486 11.1161Z" fill="black"/>
<path d="M38.6299 9.94427C39.0153 9.55365 39.6507 9.55365 40.0361 9.94427C40.4267 10.3349 40.4267 10.9697 40.0361 11.3603L39.1875 12.2148C38.8021 12.6054 38.1667 12.6054 37.7812 12.2148C37.3906 11.8242 37.3906 11.1884 37.7812 10.7978L38.6299 9.94427Z" fill="black"/>
<path d="M28.5674 7.00677C29.1715 7.00677 29.6611 7.49603 29.6611 8.10541C29.6611 8.71474 29.1715 9.20404 28.5674 9.20404C27.9634 9.20386 27.4688 8.71464 27.4688 8.10541C27.4688 7.49614 27.9634 7.00695 28.5674 7.00677Z" fill="black"/>
<path d="M35.2031 6.50677C35.5885 6.11615 36.224 6.11615 36.6094 6.50677C36.9998 6.89221 36.9999 7.52735 36.6094 7.91791L35.7607 8.7724C35.3754 9.16286 34.7399 9.16264 34.3545 8.7724C33.9639 8.38177 33.9639 7.74603 34.3545 7.35541L35.2031 6.50677Z" fill="black"/>
<path d="M20.4326 4.40228C21.0366 4.40246 21.5262 4.89697 21.5264 5.50092C21.5264 6.11018 21.0366 6.60523 20.4326 6.60541C19.8285 6.60541 19.333 6.11029 19.333 5.50092C19.3331 4.89686 19.8285 4.40228 20.4326 4.40228Z" fill="black"/>
</svg>
