<svg width="397" height="85" viewBox="0 0 397 85" fill="none" xmlns="http://www.w3.org/2000/svg">
<path fill-rule="evenodd" clip-rule="evenodd" d="M375.749 7.08506C376.077 5.43955 376.87 3.66807 378.456 2.05723C379.128 1.3751 379.833 0.848243 380.514 0.520606C381.472 0.0694343 382.58 -0.123437 383.609 0.0821296C383.83 0.128028 384.015 0.179786 384.201 0.252052C384.341 0.306739 384.483 0.373145 384.641 0.45713C385.954 1.13145 386.589 3.06504 386.58 4.41953C386.554 7.68955 384.536 11.0665 381.667 12.5421C381.144 12.8048 380.58 12.982 380.052 13.0597C378.936 13.2442 377.656 12.9938 376.793 12.1158C375.826 11.1349 375.476 9.03965 375.659 7.6832C375.685 7.4835 375.709 7.29941 375.749 7.08506ZM385.656 12.1749C384.867 12.9767 384.522 13.3595 384.019 14.3771C383.715 14.9776 383.49 15.6725 383.398 16.3702C383.357 16.6822 383.342 16.9942 383.359 17.2989C383.369 17.4933 383.393 17.6842 383.43 17.8702C383.814 19.7584 385.04 20.6158 386.88 20.8658C389.336 21.2027 391.944 20.1666 393.907 18.173C395.191 16.8697 396.199 15.1964 396.158 13.3868C396.153 12.902 396.015 12.2359 395.82 11.7843C394.827 9.47178 392.018 9.19395 389.888 9.74375C389.717 9.78623 389.546 9.83506 389.375 9.89023C389.282 9.92002 389.19 9.95176 389.097 9.98594C388.854 10.0753 388.611 10.1773 388.366 10.2936C388.174 10.3854 387.982 10.4854 387.789 10.5943C387.132 10.961 386.291 11.5309 385.656 12.1749ZM359.278 20.7003C358.747 21.2398 358.485 21.5865 358.245 22.3033C357.208 25.461 359.645 27.0519 362.094 28.2809C363.146 28.8102 364.018 29.1266 365.111 29.7721C367.458 31.1524 368.321 32.5997 369.365 35.068C369.451 35.2721 369.542 35.5001 369.638 35.7403C370.046 36.7657 370.544 38.0187 371.15 38.6339C372.099 39.5987 372.626 40.0138 373.97 40.1505C376.775 40.4659 378.299 36.3214 378.807 34.2882C379.225 32.6607 379.664 30.0797 379.801 28.4205C379.859 27.8204 379.87 27.0943 379.845 26.3907C379.825 25.8443 379.783 25.3121 379.723 24.8629C379.694 24.6402 379.657 24.4225 379.614 24.2047C379.582 24.0377 379.547 23.8712 379.51 23.7027C379.367 23.0265 379.099 22.2828 378.723 21.5924C378.433 21.0587 378.079 20.5572 377.672 20.1432C376.62 19.0758 376.248 18.7418 374.889 18.0509C373.53 17.359 371.92 16.9225 370.421 16.9273H370.334C369.47 16.9327 369.066 16.9352 368.19 17.1051C367.286 17.2804 366.939 17.3165 365.983 17.5597C364.102 18.047 362.062 18.8067 360.416 19.9083C360.015 20.1739 359.662 20.3106 359.278 20.7003ZM383.684 25.6959C382.673 26.7223 382.076 27.6144 381.891 28.9405C381.561 31.3326 383.127 32.6837 385.255 33.2115L386.524 33.3619C388.796 33.3473 390.956 32.5294 392.918 30.5362C394.327 29.1051 395.002 26.2838 393.515 24.773C392.658 23.9029 391.458 23.5084 390.463 23.3653C390.361 23.3492 390.216 23.3331 390.058 23.3199C389.758 23.2945 389.411 23.2809 389.219 23.3009C387.505 23.5382 386.517 23.7032 384.916 24.7447L383.684 25.6959ZM367.398 15.1744C366.152 15.3175 365.341 15.0333 364.445 14.1236C364.133 13.8072 363.795 13.044 363.632 12.6241C363.136 11.294 363.111 10.0548 363.3 8.67441C363.664 6.10654 365.97 2.81455 368.377 2.42637C369.297 2.28281 370.53 2.54697 371.263 3.29063C372.19 4.23203 372.401 4.7457 372.656 6.11484C373.079 8.37363 372.321 11.485 370.559 13.276C369.569 14.2799 368.674 15.0323 367.398 15.1744Z" fill="#ffffff"/>
<path fill-rule="evenodd" clip-rule="evenodd" d="M68.9292 15.2465L71.4955 17.1636L71.6617 17.3445C71.8043 17.3963 71.7807 17.3445 71.7092 17.5C72.2794 17.7331 72.5406 18.1216 73.0159 18.5102C73.3961 18.821 73.7527 19.2356 74.1089 19.5723L76.7463 22.4996L79.883 27.0586L80.0015 27.214C80.4768 28.1726 80.976 29.131 81.4272 30.2186C81.7124 30.8664 82.5914 32.887 82.5679 33.6123C82.734 33.6123 82.7104 33.5604 82.7104 33.7418V33.949L82.8055 34.0527L82.8291 34.3895L82.924 34.519C82.9716 35.063 83.1617 35.5552 83.2568 36.1247C83.3518 36.6946 83.4468 37.1091 83.5419 37.7827L83.827 40.8914V42.1866C83.8035 43.87 83.5183 45.6316 83.3042 47.0046C83.1381 47.9112 82.9716 48.4807 82.7579 49.3356C82.5679 50.1387 82.3063 50.7087 82.1402 51.434L82.0212 51.5376L81.9261 51.8744C81.3798 53.7396 80.0491 56.1225 79.051 57.7805L75.7723 62.1062C75.5582 62.3912 75.5108 62.4171 75.2731 62.702L75.107 62.8575C74.6556 63.272 74.3466 63.6088 73.9428 64.0232L71.6141 66.1216C69.4995 67.805 67.4799 69.2557 65.0087 70.5769H64.795C64.6999 70.7582 64.8901 70.7842 64.5574 70.6806C64.3197 71.1209 64.486 70.8877 63.583 71.354C62.9176 71.6908 62.1576 72.1053 61.4208 72.1053H30.8647V76.8975C30.8647 78.1409 31.0313 83.1402 30.8172 83.9433C30.5561 85.0054 29.6531 84.9019 28.3939 84.9019C27.2533 84.9019 26.1128 84.9019 24.9722 84.9019H22.834C21.3368 84.9019 19.8636 84.9019 18.3667 84.9019C16.1335 84.9019 12.8308 85.4718 12.6167 83.8656V72.3644C12.5456 71.9499 12.7832 72.1571 12.3555 72.1053H11.8088L1.04552 72.0794C0.380192 71.9499 0.285144 71.665 0.213664 71.3282C0.0950477 71.354 0.118616 71.5355 0.118616 71.2764L0 70.6287V55.0863C0 53.4028 1.21166 53.4805 2.82748 53.4805C5.72606 53.4805 8.6486 53.4805 11.5712 53.4805H12.6167C12.6167 50.5532 12.6167 47.6263 12.6167 44.699C12.6167 43.0669 12.3555 41.4871 13.211 40.969C13.7573 40.6064 16.5373 40.8136 17.4637 40.8136H17.6303C18.3192 40.8136 18.7708 40.7877 19.1036 41.1762C19.2461 41.3576 19.3647 41.5648 19.4122 41.798C19.4838 42.1089 19.4362 42.2124 19.3887 42.5748L19.2697 42.6524C19.1271 42.9634 19.2461 42.8597 18.961 43.1187C18.4618 43.611 16.181 43.4297 15.2065 43.4297V53.3769C15.2065 54.7495 15.4206 55.4749 14.4937 55.993C14.5412 56.1484 14.5652 56.1225 14.3986 56.1225L14.185 56.1484C13.6622 56.4074 4.11064 56.2261 2.58986 56.2261V69.4889H9.88421C15.9194 69.4889 15.2065 68.6858 15.2065 74.3328V82.2595H28.2749V70.5251C28.2749 70.1106 28.2514 70.3696 28.3939 70.292L28.465 70.0588C29.1064 69.3076 29.1779 69.463 30.4135 69.4889C31.2449 69.4889 32.0765 69.4889 32.9083 69.4889C34.5716 69.4889 36.2586 69.4889 37.9219 69.4889H56.4787C57.5953 69.4889 58.7123 69.4889 59.8289 69.4889C61.4683 69.4889 61.0881 69.5925 62.6564 68.8413C62.8465 68.634 62.7039 68.7636 62.9176 68.6858L63.0366 68.5563C64.0346 68.1677 65.0327 67.4942 65.9116 66.9764L69.1669 64.6708C69.3805 64.5155 69.5945 64.3859 69.8322 64.1787C71.0678 63.1425 72.0894 62.2357 73.2299 60.9405L73.3726 60.7855C73.8713 60.371 74.1089 60.0342 74.4892 59.5679C76.3661 57.3918 79.2887 52.5998 79.883 49.8279L80.0015 49.5948L80.0966 49.3616C80.1205 48.8694 80.2631 48.6104 80.3817 48.1444C80.4768 47.7817 80.5483 47.4191 80.6193 47.0305C80.7619 46.4347 80.9996 45.1912 80.9996 44.5954V44.2586C81.047 43.9736 80.9995 44.0773 81.1182 43.9218C81.1182 40.9431 81.1657 38.6634 80.5958 36.1765C80.3342 35.0111 80.073 34.0786 79.6928 32.9905C79.3838 32.0839 78.9324 30.9182 78.5283 30.1668C78.4096 29.9337 78.3147 29.7009 78.1956 29.4938C78.0531 29.2347 78.0295 29.2347 77.9584 28.8979L77.7207 28.6129C77.6258 28.4575 77.5782 28.3798 77.5068 28.2503C76.7228 26.7219 74.5366 23.7945 73.2536 22.4996C72.8734 22.111 72.5882 21.8002 72.1845 21.4116L69.9747 19.2615C69.8322 19.3392 69.8797 19.3651 69.8082 19.2097L69.642 19.0543C69.1429 18.7693 68.8817 18.4325 68.4304 18.1476C68.0027 17.8366 67.7411 17.6295 67.3134 17.3445C66.5055 16.8008 65.7215 16.205 64.8901 15.7906L64.7711 15.6869L64.6524 15.5574C64.4623 15.5056 64.486 15.5315 64.3433 15.4538C64.0582 15.2983 63.8445 15.143 63.5594 14.9875C63.3928 14.9875 63.4169 15.0393 63.4404 14.858C62.9651 14.7802 61.7535 14.0808 61.3022 13.8476C61.3022 16.0496 61.3022 18.2512 61.3022 20.479C61.3022 21.5412 61.017 22.4738 60.0426 22.5256C58.926 22.6033 58.5933 21.8002 58.5933 20.8158C55.1719 21.1008 54.1024 21.9815 53.1759 22.1888L53.0809 22.2925L52.8672 22.422C50.0158 23.8464 47.9487 26.6959 47.0457 29.8042C46.618 31.2808 46.6895 32.4724 45.3113 32.4724C45.3348 32.602 45.525 32.576 45.2638 32.576C44.432 32.576 43.8381 32.7833 43.2678 33.0423C42.6025 33.3273 42.3648 33.5086 41.8895 34.0267C40.0601 36.1247 41.5334 42.1348 44.5985 43.9218C46.8796 45.243 48.8277 44.0255 52.368 45.5021C54.2215 46.2534 56.5262 48.3258 56.9065 50.346C57.049 50.346 57.0014 50.1647 57.0014 50.3978C57.3102 51.4081 57.3816 51.9003 57.4767 53.1437C57.5242 53.9468 57.6428 54.9826 57.0965 55.5267C56.4787 56.1484 55.6472 56.0707 55.1244 55.3971C54.5777 54.7495 55.1005 53.61 54.7678 52.6774V52.4184C54.6728 50.9678 53.5561 49.232 52.5821 48.688C52.4156 48.5326 52.2019 48.4293 52.0593 48.274C51.6552 48.1185 51.2514 47.9372 50.8948 47.7817C50.7047 47.7299 50.7287 47.7299 50.6097 47.6522C50.1584 47.6263 50.2774 47.5486 49.7546 47.5486L49.0417 47.4191C48.6852 47.4191 48.6376 47.3931 48.3525 47.3154H46.7845C46.3329 47.2896 46.3804 47.2118 45.8101 47.2118C45.525 47.0305 45.0262 46.9787 44.6695 46.8492C44.5034 46.7973 44.5034 46.7973 44.3133 46.7197L43.9331 46.4865C43.4104 46.4347 42.2937 45.6056 41.9371 45.243C39.0146 42.2898 37.3276 36.7205 39.2762 33.1201C39.9415 31.9026 41.6044 30.5554 43.1252 30.2964L43.1727 30.1928C43.5529 30.1151 43.9096 30.0373 44.2893 29.9596C44.7646 27.8616 45.6915 25.867 46.7606 24.3645C47.6396 23.0955 49.6831 20.8676 50.9187 20.4532L51.1564 20.3495L51.275 20.2459C51.3701 20.1682 51.3225 20.194 51.465 20.0904C52.8672 19.132 56.7874 18.1734 58.5933 18.1734V12.0083C58.5933 11.2053 58.926 10.5839 59.6388 10.5321L59.71 10.4286H60.1616C60.3277 10.4286 60.2802 10.3768 60.2802 10.5581C61.7299 10.6876 67.2659 14.0808 68.9292 15.2465ZM3.16016 19.3392L8.79117 18.1734C8.79117 18.1734 8.68841 22.9906 3.49283 22.7587L3.16016 19.3392ZM33.5261 1.62109C36.0921 1.69881 38.8485 2.1651 40.8204 2.73503C42.8164 3.30495 45.62 4.39298 46.9982 5.50652L47.2123 5.61014L47.3073 5.73967C47.8297 5.86919 49.1368 6.98313 49.6596 7.37174C49.9683 7.60488 50.491 7.96752 50.6336 8.33017C50.8712 8.92606 50.6097 9.49589 50.301 9.78086C48.9703 11.1276 47.6161 8.71878 45.5014 7.68256L45.2874 7.44941H45.1923C44.432 7.0608 43.9571 6.72403 43.0776 6.36139C42.3413 6.05054 41.6283 5.76557 40.892 5.50652C39.7274 5.14384 37.0665 4.4966 35.7119 4.4707H35.4981C35.0944 4.44479 35.3316 4.52251 35.0469 4.36708C33.5972 4.36708 32.4091 4.23754 30.8647 4.23754H30.3184C29.3205 4.23754 25.2098 4.28936 24.1643 4.41889C21.5744 4.80747 21.028 4.62611 20.2913 6.95716C20.2913 7.21627 20.3152 7.03496 20.1726 7.03496C20.1487 7.6567 19.8636 8.40795 19.745 8.95192C19.3412 10.8689 19.0561 12.2415 17.8439 13.77C17.155 14.6249 16.2997 15.2725 15.3255 15.7906C13.8048 16.5937 13.7333 16.5677 12.2129 17.1636H11.9753L11.7853 17.2671C11.6902 17.2931 11.5476 17.3445 11.5001 17.3963C11.5001 19.9091 10.6682 21.4376 9.36147 23.1214C8.17337 24.6494 6.01121 25.3229 4.06312 25.5042C4.20569 26.1001 4.63301 27.0845 4.56191 27.6285C4.77558 27.5249 4.72805 27.4731 4.72805 27.7321C4.75704 27.8272 4.77057 27.8703 4.78718 27.8974C4.82157 27.9256 4.8544 27.952 4.8857 27.9755C4.90502 27.9904 4.92395 28.0041 4.94211 28.0171L4.96567 28.1208C5.03716 28.4316 5.08468 28.5611 5.17973 28.8202C5.27478 29.0533 5.34587 29.0792 5.41735 29.3901L5.5124 29.5973L5.63103 29.7269L7.22326 31.6435C7.86464 32.2393 8.55356 32.6538 9.57552 32.8092L9.83667 32.9128H26.0177C26.1128 32.602 26.2078 32.3689 26.374 32.0579L26.469 31.8507L26.5166 31.5398L30.9837 22.2925C31.0788 22.0852 31.1263 21.9038 31.2214 21.7225L31.3165 21.5929C31.3639 21.3857 31.34 21.4116 31.4351 21.2821C31.5065 20.9453 31.6726 20.6345 31.7916 20.2459C31.8867 19.9609 32.0293 19.5983 32.1004 19.2615C32.1004 19.0543 32.0528 19.106 32.243 19.106C32.2191 18.4584 32.6232 17.5 32.6707 16.6972C32.7182 15.9719 32.5517 14.9875 33.3596 14.5471C34.1914 14.0808 35.0469 14.5989 35.2606 15.2207C35.4267 15.6869 35.3316 17.2153 35.1416 17.6295V17.7849C35.0944 18.5879 34.5241 20.5827 34.2625 21.1266V21.3081H34.1439V21.5929C32.6942 25.2452 30.7462 28.5611 29.1779 32.1098C28.9877 32.5502 28.7026 33.3533 28.4414 33.6123V33.8454L28.3939 34.0009C27.6335 36.0211 27.0633 38.3785 27.9662 40.5546C28.37 41.5648 28.584 41.6426 28.8452 42.2639L28.8691 42.2898C29.0828 42.4453 28.9403 42.3157 29.0828 42.4711C29.2254 42.6006 29.1539 42.5488 29.2729 42.6524L30.2709 43.4815C31.0549 44.0513 31.5777 44.0773 31.8392 44.2327C32.314 44.2586 32.3856 44.3363 33.0034 44.3363L33.2645 44.4659C34.8093 44.6212 34.9043 47.4709 32.2905 46.9787H32.0293C31.5541 46.9268 31.3165 46.7715 30.8412 46.7455C30.5561 46.59 30.1284 46.4347 29.7717 46.2534C29.344 46.0202 29.1539 45.9424 28.7741 45.6834C28.0612 45.1912 27.7047 44.8027 27.0868 44.2327L27.1343 43.9996C26.7066 43.8182 26.8017 43.87 26.3979 43.2742C25.804 42.3416 25.4714 41.7203 25.1622 40.5286C24.5445 37.9381 25.1147 36.8242 25.1147 35.6588H12.4267L12.3316 35.607L12.1655 35.5552C9.45652 35.5552 8.72008 35.607 6.86664 34.6485C5.75002 34.0527 4.46688 32.7574 3.8255 31.6694L3.70649 31.4362L3.61144 31.3326L2.75601 29.7787C1.97206 27.8616 1.47286 26.5923 1.11663 24.3645L1.02157 24.0795C1.02157 23.3287 0.85543 22.6291 0.760389 21.852C0.712863 21.3339 0.570285 20.3754 0.546333 19.7796C0.427718 16.3087 3.56391 16.5418 6.08268 15.9978L9.7417 15.0911H10.0743C10.0983 14.9615 9.88421 14.9875 10.1933 14.9875C11.31 14.573 12.3791 14.2881 13.4485 13.77C16.2996 12.397 16.5136 11.2053 17.1311 8.58928C17.4402 7.24213 17.7014 6.28367 18.1291 5.09202C18.1291 4.80746 18.1055 4.98839 18.2481 5.01431C18.3431 4.47069 18.7708 3.90078 19.1271 3.5381C19.5548 3.0718 19.8399 2.86456 20.4338 2.5796C21.5508 2.00968 23.689 1.75062 25.9226 1.62109H33.5261ZM55.1719 27.4731C56.9539 27.784 58.1181 28.587 58.7123 30.2446V30.4777C58.7123 31.3067 58.2131 31.773 57.4291 31.773H57.1916C56.0035 31.5658 56.4076 30.6849 55.4331 30.2964C54.5302 29.9078 53.5561 30.2705 53.1759 30.8664C52.7247 31.6176 52.0829 32.1616 51.1564 31.5658C49.3505 30.3741 52.2019 26.9809 55.1719 27.4731ZM22.0736 13.0446C22.7389 12.7337 23.8556 12.6042 24.711 12.7856C25.4714 12.9409 26.2313 13.3037 26.7305 13.7181C28.7501 15.3502 27.8237 17.1636 26.493 17.034C25.4714 16.9303 25.5665 16.0237 24.8296 15.6351C24.1407 15.2465 23.1662 15.3243 22.6439 15.7906C22.2397 16.1274 22.0261 17.2413 20.8855 17.034C19.8399 16.8268 19.7689 15.9978 19.8399 15.3243C19.9825 14.9875 19.9825 14.9357 20.1726 14.6249C20.5529 14.0549 20.8141 13.7958 21.4082 13.3814L22.0736 13.0446ZM30.2709 51.4599C30.9837 51.9003 30.8647 52.4184 30.8647 53.4805C33.6211 53.4805 36.3536 53.4805 39.086 53.4805C41.7234 53.4805 43.4818 53.0401 43.5054 55.1899L43.4818 61.355C43.4818 62.1839 43.6004 62.6244 43.1967 63.1425C42.864 63.5569 42.3648 63.7383 41.771 63.5569C40.6068 63.1943 40.892 61.8471 40.892 60.345C40.892 58.972 40.892 57.5991 40.892 56.2261H32.5517C31.2925 56.2261 29.3679 56.4851 28.6551 55.8375C28.2038 55.423 28.2749 54.8531 28.2749 54.0505C28.2749 53.4028 28.1798 52.5738 28.3939 52.004C28.3939 51.7707 28.37 51.9522 28.5126 51.9522C28.8691 51.2009 29.6766 51.0973 30.2709 51.4599Z" fill="#ffffff"/>
<path d="M88.7383 24.0454C90.1748 24.0454 91.3537 24.1577 92.2747 24.3822C93.1959 24.6071 93.6565 24.7194 93.6565 24.7194C93.6565 24.7194 93.4903 25.009 93.1592 25.5891C92.8273 26.1693 92.5329 27.0021 92.2747 28.0871L84.2073 56.7168C83.9125 57.9889 83.1845 58.9246 82.0242 59.5232C80.8636 60.1222 79.031 60.4216 76.5258 60.4216C74.0576 60.4216 72.2432 60.1222 71.0829 59.5232C69.9227 58.9246 69.1947 57.9889 68.9003 56.7168L60.7771 28.0871C60.5191 27.0021 60.2247 26.1693 59.8932 25.5891C59.5616 25.009 59.3955 24.7194 59.3955 24.7194C59.3955 24.7194 59.8653 24.6071 60.8049 24.3822C61.7442 24.1577 62.9138 24.0454 64.3136 24.0454C67.0766 24.0454 68.7342 25.2618 69.287 27.6942L76.5814 53.2926L83.8202 27.6942C84.3726 25.2618 86.012 24.0454 88.7383 24.0454Z" fill="#ffffff"/>
<path d="M115.203 47.3415C115.203 47.9783 115.01 48.5019 114.624 48.9135C114.236 49.3253 113.62 49.531 112.772 49.531H99.6757C100.523 53.0864 103.046 54.8644 107.246 54.8644C108.757 54.8644 109.954 54.6304 110.838 54.1625C111.721 53.6947 112.366 53.2174 112.772 52.7307C113.177 52.2443 113.379 52.001 113.379 52.001C113.379 52.001 113.499 52.2161 113.739 52.6463C113.978 53.0769 114.098 53.7787 114.098 54.7517C114.098 56.361 113.232 57.7084 111.5 58.7934C109.77 59.8786 107.411 60.4214 104.427 60.4214C101.849 60.4214 99.5459 59.9536 97.5197 59.0179C95.4943 58.0825 93.9009 56.6326 92.7406 54.6677C91.5804 52.7028 91 50.2234 91 47.2297C91 42.7014 92.1236 39.3796 94.3708 37.2651C96.6184 35.1512 99.6379 34.0938 103.433 34.0938C107.375 34.0938 110.323 35.1602 112.274 37.2934C114.227 39.4267 115.203 42.776 115.203 47.3415ZM103.654 39.6512C102.548 39.6512 101.61 40.0347 100.836 40.8017C100.062 41.569 99.5837 42.982 99.3987 45.0403H107.799C107.614 42.982 107.163 41.569 106.444 40.8017C105.726 40.0347 104.796 39.6512 103.654 39.6512Z" fill="#ffffff"/>
<path d="M135.352 52.5065C135.352 52.5065 135.463 52.656 135.683 52.9551C135.904 53.2546 136.015 53.872 136.015 54.8078C136.015 56.5294 135.334 57.8952 133.97 58.9056C132.607 59.9162 130.673 60.4214 128.168 60.4214C124.816 60.4214 122.356 59.5889 120.791 57.9231C119.225 56.2577 118.443 53.9843 118.443 51.103V30.6129C118.443 29.3032 118.368 28.4239 118.222 27.9745C118.074 27.5255 118 27.3009 118 27.3009C118 27.3009 118.322 27.1793 118.967 26.9359C119.612 26.693 120.561 26.5713 121.813 26.5713C123.433 26.5713 124.632 26.8519 125.405 27.4132C126.178 27.9745 126.566 28.9475 126.566 30.3323V34.6549H131.262C131.778 34.6549 132.266 34.8889 132.727 35.3567C133.187 35.8246 133.418 36.6571 133.418 37.8546C133.418 38.94 133.297 39.6602 133.058 40.0158C132.819 40.3714 132.699 40.5493 132.699 40.5493H126.566V49.2503C126.566 52.7306 128.131 54.471 131.262 54.471C132.295 54.471 133.104 54.3023 133.694 53.9658C134.283 53.6291 134.707 53.3017 134.965 52.9834C135.222 52.6655 135.352 52.5065 135.352 52.5065Z" fill="#ffffff"/>
<path d="M174.145 27.6379L177.239 56.4356C177.35 57.5205 177.497 58.3256 177.681 58.8491C177.866 59.3731 177.958 59.6354 177.958 59.6354C177.958 59.6354 177.598 59.766 176.881 60.0282C176.162 60.2904 175.158 60.4211 173.869 60.4211C172.064 60.4211 170.802 60.131 170.083 59.5509C169.365 58.9708 168.932 58.0261 168.785 56.7162L166.685 37.9106L161.933 53.1798C161.711 54.0032 161.297 54.5641 160.69 54.8636C160.082 55.1627 159.354 55.3127 158.506 55.3127C157.66 55.3127 156.932 55.1537 156.324 54.8354C155.716 54.5175 155.283 53.9656 155.025 53.1798L150.328 37.9106L148.228 56.7162C148.081 58.0261 147.648 58.9708 146.93 59.5509C146.211 60.131 144.95 60.4211 143.144 60.4211C141.855 60.4211 140.842 60.2904 140.105 60.0282C139.368 59.766 139 59.6354 139 59.6354C139 59.6354 139.101 59.3731 139.304 58.8491C139.506 58.3256 139.663 57.5205 139.774 56.4356L142.868 27.6379C142.979 26.2531 143.449 25.2985 144.277 24.7745C145.106 24.2509 146.312 23.9888 147.897 23.9888C149.445 23.9888 150.66 24.2509 151.544 24.7745C152.429 25.2985 153.054 26.2531 153.422 27.6379L158.506 44.1981L163.591 27.6379C163.996 26.2531 164.632 25.2985 165.498 24.7745C166.362 24.2509 167.569 23.9888 169.116 23.9888C170.664 23.9888 171.852 24.2509 172.68 24.7745C173.51 25.2985 173.998 26.2531 174.145 27.6379Z" fill="#ffffff"/>
<path d="M203.982 43.3V56.3237C203.982 57.6334 204.055 58.5127 204.204 58.9621C204.351 59.4112 204.424 59.6357 204.424 59.6357C204.424 59.6357 204.101 59.7663 203.457 60.0285C202.812 60.2908 201.883 60.4214 200.666 60.4214C199.157 60.4214 198.014 60.1781 197.241 59.6913C196.467 59.2051 196.025 58.4005 195.915 57.2779C194.367 59.3735 191.972 60.4214 188.73 60.4214C185.857 60.4214 183.683 59.7385 182.21 58.3725C180.737 57.0066 180 55.0512 180 52.5066C180 49.8866 180.783 47.875 182.348 46.4714C183.913 45.0682 186.115 44.3664 188.952 44.3664C190.499 44.3664 191.835 44.5253 192.958 44.8436C194.082 45.162 195.049 45.5267 195.86 45.9384V44.9276C195.86 41.41 193.556 39.6512 188.952 39.6512C187.257 39.6512 185.913 39.8942 184.917 40.3809C183.924 40.8672 183.205 41.3633 182.763 41.8681C182.321 42.3736 182.1 42.6264 182.1 42.6264C182.1 42.6264 181.962 42.4019 181.685 41.9528C181.409 41.5035 181.271 40.7549 181.271 39.7074C181.271 38.0981 182.081 36.7604 183.702 35.6936C185.323 34.6267 187.92 34.0938 191.494 34.0938C195.84 34.0938 199.009 34.8795 200.998 36.4515C202.987 38.0235 203.982 40.3063 203.982 43.3ZM191.825 54.8644C193.004 54.8644 193.972 54.4989 194.726 53.7693C195.481 53.0392 195.86 51.9637 195.86 50.5417V49.4753C195.454 49.288 194.956 49.1381 194.367 49.0258C193.777 48.9135 193.115 48.8575 192.378 48.8575C189.578 48.8575 188.178 49.8489 188.178 51.8327C188.178 53.8537 189.394 54.8644 191.825 54.8644Z" fill="#ffffff"/>
<path d="M222.422 34.1494C225.627 34.1494 227.23 35.5903 227.23 38.4721C227.23 39.5201 227.11 40.2591 226.871 40.6894C226.631 41.1195 226.511 41.335 226.511 41.335C226.511 41.335 226.208 41.1105 225.6 40.6615C224.992 40.2121 223.987 39.988 222.588 39.988C220.783 39.988 219.319 40.6894 218.195 42.0929C217.072 43.4966 216.509 45.7138 216.509 48.7452V56.3798C216.509 57.6519 216.583 58.5225 216.731 58.9899C216.879 59.4578 216.952 59.6918 216.952 59.6918C216.952 59.6918 216.62 59.8135 215.957 60.0568C215.294 60.2998 214.355 60.4214 213.139 60.4214C211.481 60.4214 210.275 60.1314 209.519 59.5512C208.765 58.9711 208.386 57.989 208.386 56.6043V38.1915C208.386 36.8817 208.322 35.9927 208.193 35.5248C208.063 35.0573 208 34.8234 208 34.8234C208 34.8234 208.313 34.7111 208.939 34.4866C209.565 34.2617 210.505 34.1494 211.757 34.1494C213.415 34.1494 214.621 34.4301 215.377 34.9917C216.131 35.5531 216.509 36.5072 216.509 37.8547V37.967C217.799 35.4223 219.77 34.1494 222.422 34.1494Z" fill="#ffffff"/>
<path d="M244.693 47.1732L251.767 56.436C252.356 57.6335 252.862 58.4566 253.286 58.9056C253.71 59.355 253.921 59.5795 253.921 59.5795C253.921 59.5795 253.645 59.7197 253.093 60.0003C252.54 60.2809 251.453 60.4214 249.833 60.4214C248.469 60.4214 247.3 60.206 246.324 59.7758C245.347 59.3457 244.619 58.6443 244.141 57.6708L237.565 49.9804V56.3799C237.565 57.652 237.629 58.5225 237.759 58.99C237.887 59.4579 237.951 59.6918 237.951 59.6918C237.951 59.6918 237.629 59.8135 236.985 60.0568C236.34 60.2998 235.391 60.4214 234.139 60.4214C232.518 60.4214 231.33 60.1314 230.574 59.5513C229.82 58.9712 229.442 57.9892 229.442 56.6043V25.5611C229.442 24.2512 229.368 23.3623 229.221 22.8943C229.074 22.4265 229 22.1926 229 22.1926C229 22.1926 229.322 22.0808 229.967 21.8558C230.611 21.6313 231.56 21.519 232.812 21.519C234.47 21.519 235.677 21.7996 236.432 22.3614C237.187 22.9227 237.565 23.8769 237.565 25.2239V44.2542L244.97 34.8234C244.97 34.8234 245.311 34.7112 245.992 34.4866C246.673 34.2617 247.806 34.1494 249.39 34.1494C250.974 34.1494 252.043 34.2617 252.595 34.4866C253.148 34.7112 253.424 34.8234 253.424 34.8234L244.693 47.1732Z" fill="#ffffff"/>
<path d="M278.204 47.3415C278.204 47.9783 278.009 48.5019 277.623 48.9135C277.236 49.3253 276.619 49.531 275.772 49.531H262.675C263.523 53.0864 266.046 54.8644 270.246 54.8644C271.756 54.8644 272.953 54.6304 273.837 54.1625C274.722 53.6947 275.367 53.2174 275.772 52.7307C276.177 52.2443 276.38 52.001 276.38 52.001C276.38 52.001 276.499 52.2161 276.739 52.6463C276.978 53.0769 277.097 53.7787 277.097 54.7517C277.097 56.361 276.233 57.7084 274.501 58.7934C272.769 59.8786 270.412 60.4214 267.428 60.4214C264.848 60.4214 262.546 59.9536 260.52 59.0179C258.494 58.0825 256.9 56.6326 255.74 54.6677C254.58 52.7028 254 50.2234 254 47.2297C254 42.7014 255.123 39.3796 257.37 37.2651C259.617 35.1512 262.638 34.0938 266.433 34.0938C270.375 34.0938 273.322 35.1602 275.275 37.2934C277.227 39.4267 278.204 42.776 278.204 47.3415ZM266.654 39.6512C265.549 39.6512 264.609 40.0347 263.835 40.8017C263.062 41.569 262.583 42.982 262.399 45.0403H270.798C270.614 42.982 270.162 41.569 269.445 40.8017C268.726 40.0347 267.796 39.6512 266.654 39.6512Z" fill="#ffffff"/>
<path d="M364.204 47.2478C364.204 47.8845 364.009 48.4081 363.623 48.8198C363.236 49.2315 362.619 49.4373 361.772 49.4373H348.675C349.523 52.9926 352.046 54.7706 356.246 54.7706C357.756 54.7706 358.953 54.5366 359.837 54.0688C360.722 53.601 361.367 53.1237 361.772 52.6369C362.177 52.1506 362.38 51.9073 362.38 51.9073C362.38 51.9073 362.499 52.1223 362.739 52.5526C362.978 52.9831 363.097 53.685 363.097 54.6579C363.097 56.2672 362.233 57.6147 360.501 58.6996C358.769 59.7848 356.412 60.3277 353.428 60.3277C350.848 60.3277 348.546 59.8598 346.52 58.9241C344.494 57.9887 342.9 56.5389 341.74 54.5739C340.58 52.6091 340 50.1296 340 47.1359C340 42.6077 341.124 39.2859 343.37 37.1714C345.617 35.0574 348.638 34 352.433 34C356.375 34 359.322 35.0664 361.275 37.1996C363.227 39.3329 364.204 42.6822 364.204 47.2478ZM352.654 39.5575C351.549 39.5575 350.609 39.941 349.835 40.7079C349.062 41.4753 348.583 42.8883 348.399 44.9466H356.798C356.614 42.8883 356.162 41.4753 355.445 40.7079C354.726 39.941 353.796 39.5575 352.654 39.5575Z" fill="#ffffff"/>
<path d="M298.351 52.5065C298.351 52.5065 298.462 52.656 298.682 52.9551C298.904 53.2546 299.015 53.872 299.015 54.8078C299.015 56.5294 298.333 57.8952 296.97 58.9056C295.606 59.9162 293.672 60.4214 291.167 60.4214C287.815 60.4214 285.356 59.5889 283.791 57.9231C282.225 56.2577 281.442 53.9843 281.442 51.103V30.6129C281.442 29.3032 281.368 28.4239 281.221 27.9745C281.074 27.5255 281 27.3009 281 27.3009C281 27.3009 281.322 27.1793 281.967 26.9359C282.611 26.693 283.56 26.5713 284.812 26.5713C286.433 26.5713 287.63 26.8519 288.404 27.4132C289.178 27.9745 289.565 28.9475 289.565 30.3323V34.6549H294.262C294.777 34.6549 295.266 34.8889 295.726 35.3567C296.187 35.8246 296.417 36.6571 296.417 37.8546C296.417 38.94 296.297 39.6602 296.058 40.0158C295.818 40.3714 295.698 40.5493 295.698 40.5493H289.565V49.2503C289.565 52.7306 291.131 54.471 294.262 54.471C295.294 54.471 296.104 54.3023 296.693 53.9658C297.283 53.6291 297.706 53.3017 297.965 52.9834C298.222 52.6655 298.351 52.5065 298.351 52.5065Z" fill="#ffffff"/>
<path d="M306.5 60C305.069 60 303.962 59.6097 303.177 58.8295C302.393 58.0492 302 56.931 302 55.4742C302 54.0519 302.393 52.9509 303.177 52.1702C303.962 51.3904 305.069 51 306.5 51C307.93 51 309.037 51.4162 309.822 52.2485C310.607 53.0807 311 54.1563 311 55.4742C311 56.931 310.607 58.0492 309.822 58.8295C309.037 59.6097 307.93 60 306.5 60Z" fill="#ffffff"/>
<path fill-rule="evenodd" clip-rule="evenodd" d="M313 35.9999C313.167 36.1665 313.5 36.5999 313.5 36.9999V70.9999C314.501 72.9999 317 73.9999 322 72.9999C321.834 69.8332 321.501 60.9998 321.501 60.9998C336.501 62.0002 338.449 53.2409 338.273 46.4998C338.501 39.0004 330.001 30.5 321.501 38.9999C321.334 37.3332 319.399 34.3999 313 35.9999ZM321.501 55.0002C321.001 50.5002 321.101 41.4002 325.501 41.0002C329.901 40.6002 330.668 45.1669 330.501 47.5002C330.501 51.5002 328.001 54.5005 326.001 55.0002C324.001 55.5 321.501 55.0002 321.501 55.0002Z" fill="#ffffff"/>
</svg>
