<svg width="322" height="77" viewBox="0 0 322 77" fill="none" xmlns="http://www.w3.org/2000/svg">
<path d="M37.0417 45.0366V51.2502C37.0417 51.547 36.9323 51.8075 36.7188 52.0158C36.5052 52.2293 36.25 52.3387 35.9479 52.3387C35.6458 52.3387 35.3906 52.2293 35.1771 52.0158C34.9635 51.8075 34.8594 51.547 34.8594 51.2502V46.12H25.2448C24.9427 46.12 24.6875 46.0158 24.474 45.8022C24.2604 45.5887 24.1562 45.3335 24.1562 45.0314V43.12C24.1562 42.8179 24.2604 42.5627 24.474 42.3491C24.6875 42.1356 24.9427 42.0262 25.2448 42.0262C25.5469 42.0262 25.8073 42.1356 26.0156 42.3491C26.2292 42.5627 26.3385 42.8179 26.3385 43.12V43.9377H35.9479C36.25 43.9377 36.5104 44.047 36.724 44.2606C36.9323 44.4741 37.0417 44.7345 37.0417 45.0366ZM42.9479 7.13558C42.7708 7.38037 42.5313 7.521 42.2344 7.56787C41.9375 7.61475 41.6667 7.54704 41.4219 7.36995C41.2448 7.23454 41.0521 7.0887 40.8438 6.93245C38.75 5.31787 35.2396 2.62516 26.9479 2.62516C22.6719 2.62516 19.9844 2.6512 18.7031 3.10954C17.875 3.4012 17.6302 3.79704 17.0833 5.72412C16.9635 6.146 16.8698 6.57308 16.7917 6.98454C16.1823 9.86996 15.3385 11.9272 9.82812 13.6356C9.82812 13.7293 9.82812 13.8231 9.82812 13.922C9.82812 17.4741 7.06771 20.3595 3.68229 20.3595C3.63542 20.3595 3.58333 20.3595 3.53646 20.3595C4.31771 23.521 5.90104 26.6772 9.11979 26.6981C15.0833 26.745 20.3229 26.7189 22.224 26.6981C22.875 24.9533 23.776 23.1981 24.6615 21.4637C26.2708 18.3231 27.9375 15.0731 27.9375 12.2345C27.9375 11.9325 28.0417 11.6772 28.2552 11.4637C28.4688 11.2502 28.724 11.1408 29.026 11.1408C29.3281 11.1408 29.5833 11.2502 29.7969 11.4637C30.0104 11.6772 30.1198 11.9325 30.1198 12.2345C30.1198 15.5991 28.3281 19.0887 26.6042 22.4585C25.6042 24.4116 24.6354 26.297 24.0469 28.0679L24.0104 28.172C23.6719 29.146 23.4896 30.1512 23.4635 31.1772C23.4635 33.8387 25.7083 36.271 28.1771 36.271C28.4792 36.271 28.7344 36.3752 28.9479 36.5887C29.1615 36.8022 29.2708 37.0627 29.2708 37.3595C29.2708 37.6616 29.1615 37.922 28.9479 38.1356C28.7344 38.3439 28.4792 38.4533 28.1771 38.4533C24.5052 38.4533 21.2813 35.0575 21.2813 31.1772C21.2917 30.4012 21.3802 29.6304 21.5625 28.87C20.3333 28.87 18.4062 28.8856 16.0521 28.8856C13.9948 28.8856 11.6146 28.8804 9.10937 28.8595C6.71875 28.8491 4.70312 27.6564 3.26562 25.422C2.26042 23.8439 1.52083 21.7502 1.06771 19.1877C0.848958 17.922 0.713541 16.6512 0.651041 15.37C0.640625 15.0887 0.677082 14.8179 0.765625 14.5575C0.854166 14.2918 0.984374 14.0522 1.16146 13.8335C1.33854 13.62 1.54687 13.4377 1.78646 13.297C2.02604 13.1564 2.28646 13.0627 2.5625 13.021C4.51042 12.7085 6.4375 12.3022 8.34375 11.7918C10.9271 11.0731 12.6146 10.2606 13.4948 9.31787C14.224 8.53141 14.4167 7.6512 14.651 6.53662C14.7448 6.0887 14.8438 5.62516 14.9844 5.13037C15.474 3.41162 15.9427 1.78662 17.9688 1.05745C19.5156 0.500162 21.776 0.442871 26.9479 0.442871C35.9844 0.442871 40.0104 3.53662 42.1823 5.19808C42.375 5.34391 42.5521 5.48975 42.724 5.60954C42.9635 5.78662 43.1094 6.0262 43.1562 6.32308C43.1979 6.62516 43.1302 6.896 42.9479 7.13558ZM7.63542 14.2293H7.63021L7.28646 14.3127C7.04167 14.37 6.79167 14.4272 6.53125 14.4845L6.20312 14.5575L5.82292 14.6356L5.73437 14.6512L5.44271 14.7137C5.18229 14.7658 4.91667 14.8179 4.64583 14.8647C4.09896 14.9689 3.52083 15.0731 2.92187 15.172C2.85937 15.1825 2.82812 15.2189 2.82812 15.2814C2.82812 15.37 2.83854 15.4585 2.84375 15.5575C2.85417 15.7033 2.86458 15.8543 2.875 16.021C2.875 16.1252 2.89062 16.2345 2.90104 16.3491C2.90104 16.4064 2.91146 16.4741 2.91667 16.5366C2.92187 16.5991 2.92708 16.6564 2.93229 16.7189C2.94271 16.7814 2.94792 16.8439 2.95312 16.9064C2.95833 16.9741 2.96875 17.0679 2.97917 17.1512C2.98958 17.2658 3.00521 17.3804 3.02083 17.5002C3.02083 17.5314 3.02083 17.5627 3.03125 17.5887L3.05729 17.7866C3.07292 17.9012 3.08854 18.0106 3.10417 18.1304C3.29687 18.1616 3.49479 18.1772 3.6875 18.172C5.77083 18.172 7.48437 16.4325 7.63542 14.2293ZM52.4844 59.4377C52.5573 59.4377 52.6302 59.4272 52.7031 59.4116C52.6302 59.4272 52.5573 59.4377 52.4792 59.4377H52.4844ZM51.4167 7.92725H51.4062C51.3698 7.91683 51.3281 7.9012 51.2917 7.89079L51.2344 7.88037C51.1927 7.86996 51.151 7.85954 51.1094 7.85433C51.0365 7.84912 50.9583 7.84912 50.8854 7.85433C50.849 7.85954 50.8125 7.86475 50.776 7.86995L50.6875 7.896C50.6823 7.896 50.6771 7.896 50.6719 7.896C50.6406 7.90641 50.6042 7.91683 50.5729 7.93245C50.5469 7.94287 50.5156 7.9585 50.4896 7.96891L50.4688 7.98454L50.3854 8.03141C50.3594 8.05225 50.3333 8.07308 50.3021 8.09391C50.276 8.11475 50.2552 8.13558 50.2292 8.16162C50.2031 8.18766 50.1771 8.2137 50.1562 8.24495C50.1354 8.26579 50.1146 8.29183 50.099 8.31787L50.0885 8.3387C50.0677 8.36475 50.0521 8.39079 50.0365 8.41683C50.026 8.44287 50.0104 8.46891 50 8.49496L49.9896 8.51579C49.9792 8.54704 49.9688 8.57829 49.9583 8.60954C49.9479 8.64079 49.9375 8.67725 49.9323 8.7085C49.9323 8.7085 49.9323 8.71891 49.9323 8.72412C49.9323 8.75537 49.9219 8.78662 49.9167 8.82308C49.9167 8.85954 49.9167 8.896 49.9167 8.93246V14.3179C45.8177 14.5627 39.8073 16.3283 37.7396 24.1981C36.7188 24.3647 35.0521 24.8491 33.9219 26.2345C32.8698 27.5418 32.5469 29.271 32.9688 31.396C34.4219 38.7189 39.4062 38.7189 41.2812 38.7189C42.5469 38.7189 44.3073 39.1512 45.4635 40.3908C46.4323 41.4272 46.8646 42.8908 46.7448 44.745C46.7188 45.0418 46.8073 45.3075 47.0104 45.5366C47.2083 45.7658 47.4583 45.8856 47.7604 45.9064C47.7865 45.9064 47.8073 45.9064 47.8333 45.9064C48.1198 45.9064 48.3698 45.8075 48.5781 45.6095C48.7865 45.4168 48.901 45.172 48.9219 44.8856C49.0833 42.4168 48.4583 40.4012 47.0573 38.9012C45 36.7085 42.1198 36.5366 41.2812 36.5366C38.8281 36.5366 36.1302 36.1043 35.1146 30.9741C34.8229 29.521 34.9948 28.396 35.6146 27.6304C36.6302 26.3543 38.6198 26.297 38.6354 26.2918C38.8906 26.2918 39.1146 26.2085 39.3125 26.047C39.5052 25.8908 39.6302 25.6877 39.6875 25.4377C41.1719 18.646 45.8594 16.771 49.9167 16.5054V16.8543C49.9167 17.1564 50.026 17.4116 50.2396 17.6252C50.4479 17.8387 50.7083 17.9429 51.0104 17.9429C51.3125 17.9429 51.5677 17.8387 51.7812 17.6252C51.9948 17.4116 52.099 17.1564 52.099 16.8543V10.6147C62.6198 15.5366 69.0833 24.3491 69.0833 33.922C69.0833 43.672 62.7969 52.3804 52.2552 57.2554H25.2448C24.9427 57.2554 24.6875 57.3595 24.474 57.5731C24.2604 57.7866 24.1562 58.0418 24.1562 58.3439V67.9585H13.026V58.3387C13.026 58.0418 12.9219 57.7814 12.7083 57.5679C12.4948 57.3543 12.2344 57.2502 11.9323 57.2502H2.32292V46.12H11.9323C12.2344 46.12 12.4948 46.0158 12.7083 45.8022C12.9219 45.5887 13.026 45.3335 13.026 45.0314V35.422H15.5365C15.8385 35.422 16.0937 35.3179 16.3073 35.1043C16.5208 34.8908 16.625 34.6356 16.625 34.3335C16.625 34.0314 16.5208 33.7762 16.3073 33.5627C16.0937 33.3491 15.8385 33.2397 15.5365 33.2397H11.9323C11.6354 33.2397 11.375 33.3491 11.1615 33.5627C10.9479 33.7762 10.8437 34.0314 10.8437 34.3335V43.9377H1.23437C0.932292 43.9377 0.671874 44.047 0.463541 44.2606C0.25 44.4741 0.140625 44.7293 0.140625 45.0314V58.3387C0.140625 58.6408 0.25 58.9012 0.463541 59.1147C0.671874 59.3231 0.932292 59.4325 1.23437 59.4325H10.8437V69.047C10.8437 69.3491 10.9479 69.6043 11.1615 69.8179C11.375 70.0314 11.6354 70.1408 11.9323 70.1408H25.2448C25.5469 70.1408 25.8073 70.0314 26.0156 69.8179C26.2292 69.6043 26.3385 69.3491 26.3385 69.047V59.4377H52.4792C52.5573 59.4377 52.6302 59.4272 52.7031 59.4168H52.7083C52.7396 59.4064 52.776 59.396 52.8073 59.3908C52.8385 59.3804 52.875 59.3647 52.9062 59.3543L52.9531 59.3283L52.9792 59.3179C58.4688 56.8127 63.0469 53.2085 66.224 48.8908C69.5156 44.422 71.25 39.2502 71.25 33.9272C71.25 22.9897 63.651 13.0366 51.4167 7.92725ZM40.8438 76.9429L40.8698 76.9325L40.8906 76.922L40.8438 76.9429ZM23.724 11.8283C23.2188 10.5887 21.875 9.75537 20.3802 9.75537C18.8802 9.75537 17.5365 10.5887 17.0313 11.8283C16.9219 12.1043 16.9219 12.3856 17.0417 12.6616C17.1563 12.9377 17.3542 13.1356 17.6354 13.245C17.7656 13.3022 17.9063 13.3283 18.0469 13.3283C18.5417 13.3283 18.8802 13.1043 19.0625 12.646C19.2083 12.3022 19.6771 11.9325 20.3854 11.9325C21.0938 11.9325 21.5677 12.3022 21.7083 12.646C21.8229 12.9272 22.0156 13.1252 22.2969 13.2397C22.5729 13.3595 22.849 13.3595 23.1302 13.245C23.4115 13.1304 23.6094 12.9377 23.724 12.6616C23.8438 12.3804 23.8438 12.1043 23.7292 11.8231L23.724 11.8283ZM49.875 24.1825C49.375 22.9429 48.0312 22.1095 46.5312 22.1095C45.0312 22.1095 43.6927 22.9429 43.1875 24.1825C43.0729 24.4637 43.0729 24.7397 43.1927 25.021C43.3073 25.297 43.5052 25.4897 43.7865 25.6043C44.0677 25.7189 44.3438 25.7137 44.6198 25.5991C44.901 25.4793 45.0938 25.2814 45.2083 25.0054C45.3542 24.6616 45.8177 24.2918 46.5312 24.2918C47.2396 24.2918 47.7135 24.6616 47.8542 25.0054C47.9583 25.2918 48.1563 25.495 48.4375 25.62C48.7188 25.7397 49 25.745 49.2865 25.6304C49.5677 25.5158 49.7656 25.3127 49.8854 25.0314C50 24.745 49.9948 24.4637 49.875 24.1825Z" fill="#318F9A"/>
<path d="M321.031 8.9738C320.985 8.92692 320.933 8.88005 320.88 8.83838C318.636 7.25505 315.563 8.2238 313.625 9.85922C311.781 11.2551 310.412 14.0519 311.828 16.1926C312.037 16.4998 312.328 16.7446 312.646 16.9269C315.505 18.3488 319 16.7707 320.792 14.3644C322.063 12.9165 322.516 10.4165 321.031 8.9738ZM312.828 0.942551C311.61 -0.213699 309.474 0.0623431 308.151 1.01026C305.505 2.85922 303.735 6.67693 305.365 9.72901C305.537 9.99984 305.761 10.229 306.016 10.4165C307.865 11.7342 310.308 10.6301 311.677 9.13005C313.521 7.19255 314.724 4.02588 313.292 1.53109C313.156 1.30713 313.005 1.10922 312.828 0.947759V0.942551ZM319.745 20.6353C317.563 18.6978 314.099 19.3384 311.979 21.0571C310.323 22.1665 309.209 24.7551 310.677 26.4478C312.906 28.6196 316.761 27.7707 318.849 25.8071C320.323 24.6092 321.162 22.1926 319.745 20.6353ZM301.266 3.06755C300.401 2.18213 299.016 1.84359 297.839 2.44776C294.693 4.06755 293.209 8.61963 295.229 11.6405C296.104 12.8748 297.839 12.9946 299.068 12.2811C301.703 10.755 302.985 7.19776 302.005 4.33318C301.87 3.84359 301.61 3.4113 301.266 3.06755ZM306.229 16.5676C304.505 14.854 301.891 13.9842 299.479 14.1665C296.766 14.479 294.026 15.2551 291.729 16.7759C289.891 17.6821 289.37 20.3228 290.828 21.8019C292.547 23.6196 295.276 23.9217 297.125 25.5884C298.839 26.854 299.401 28.9634 300.235 30.8071C300.886 32.4373 302.651 33.828 304.459 33.1821C306.167 32.3905 306.828 30.3801 307.38 28.7082C308.047 25.7655 308.719 22.6509 307.979 19.6561C307.693 18.4426 307.068 17.4061 306.229 16.5676Z" fill="#008000"/>
<path d="M75.251 19.7998C76.4697 19.7998 77.4697 19.8988 78.251 20.0915C79.027 20.2738 79.4176 20.3623 79.4176 20.3623C79.4176 20.3623 79.277 20.6071 79.001 21.0915C78.7197 21.5654 78.4697 22.2529 78.251 23.154L71.4176 47.0498C71.1676 48.1071 70.5479 48.8831 69.5635 49.3831C68.5739 49.8831 67.0218 50.1331 64.8968 50.1331C62.8135 50.1331 61.277 49.8831 60.2926 49.3831C59.3031 48.8831 58.6885 48.1071 58.4385 47.0498L51.5635 23.154C51.3395 22.2529 51.0843 21.5654 50.7926 21.0915C50.5114 20.6071 50.376 20.3623 50.376 20.3623C50.376 20.3623 50.7718 20.2738 51.5635 20.0915C52.3656 19.8988 53.3656 19.7998 54.5635 19.7998C56.8968 19.7998 58.2979 20.8154 58.7718 22.8415L64.9593 44.1956L71.0843 22.8415C71.5531 20.8154 72.9437 19.7998 75.251 19.7998Z" fill="#008000"/>
<path d="M97.1761 39.2165C97.1761 39.7581 97.0094 40.2061 96.6761 40.5498C96.3532 40.8831 95.8324 41.0498 95.1136 41.0498H84.0094C84.7282 44.0238 86.8688 45.5081 90.4261 45.5081C91.7178 45.5081 92.7282 45.3154 93.4678 44.9248C94.2178 44.5238 94.7646 44.1227 95.1136 43.7165C95.4574 43.3154 95.6344 43.1123 95.6344 43.1123C95.6344 43.1123 95.7282 43.2946 95.9261 43.654C96.1344 44.0186 96.2386 44.6019 96.2386 45.404C96.2386 46.7529 95.499 47.8779 94.0303 48.779C92.5719 49.6852 90.5771 50.1331 88.0511 50.1331C85.8532 50.1331 83.8949 49.7425 82.1761 48.9665C80.4678 48.1904 79.1188 46.9821 78.1344 45.3415C77.1449 43.7061 76.6553 41.6331 76.6553 39.1331C76.6553 35.3571 77.6032 32.5863 79.5094 30.8206C81.4261 29.0602 83.9886 28.1748 87.1969 28.1748C90.5407 28.1748 93.0407 29.0654 94.6969 30.8415C96.348 32.6227 97.1761 35.4144 97.1761 39.2165ZM87.3844 32.7998C86.4521 32.7998 85.6553 33.1279 84.9886 33.779C84.3324 34.4196 83.9313 35.5915 83.7803 37.2998H90.9053C90.749 35.5915 90.3688 34.4196 89.7594 33.779C89.1449 33.1279 88.3532 32.7998 87.3844 32.7998Z" fill="#008000"/>
<path d="M112.952 43.5288C112.952 43.5288 113.041 43.6538 113.223 43.9038C113.416 44.1538 113.514 44.6694 113.514 45.4455C113.514 46.8934 112.936 48.0392 111.785 48.883C110.629 49.7163 108.994 50.133 106.869 50.133C104.02 50.133 101.931 49.4403 100.598 48.0496C99.2749 46.6642 98.6187 44.7684 98.6187 42.3621V25.2788C98.6187 24.1851 98.5562 23.4455 98.4312 23.0705C98.3062 22.6955 98.2437 22.508 98.2437 22.508C98.2437 22.508 98.5145 22.4142 99.0562 22.2163C99.6082 22.008 100.416 21.9038 101.473 21.9038C102.848 21.9038 103.858 22.1434 104.514 22.6121C105.181 23.0705 105.514 23.8778 105.514 25.0288V28.633H109.494C109.921 28.633 110.332 28.8361 110.723 29.2371C111.108 29.6278 111.306 30.3205 111.306 31.3205C111.306 32.2267 111.202 32.8205 110.994 33.1121C110.796 33.4038 110.702 33.5496 110.702 33.5496H105.514V40.8205C105.514 43.7267 106.837 45.1746 109.494 45.1746C110.369 45.1746 111.056 45.0392 111.556 44.758C112.056 44.4663 112.41 44.1903 112.619 43.9246C112.837 43.6642 112.952 43.5288 112.952 43.5288Z" fill="#008000"/>
<path d="M143.763 22.779L146.388 46.8206C146.482 47.7269 146.607 48.3988 146.763 48.8415C146.914 49.2738 146.992 49.4873 146.992 49.4873C146.992 49.4873 146.685 49.5915 146.075 49.7998C145.461 50.0186 144.617 50.1331 143.534 50.1331C142.002 50.1331 140.935 49.8936 140.325 49.4248C139.711 48.9404 139.346 48.1488 139.221 47.0498L137.43 31.3623L133.409 44.0915C133.226 44.7894 132.872 45.2581 132.346 45.5081C131.831 45.7581 131.221 45.8831 130.513 45.8831C129.789 45.8831 129.169 45.7529 128.659 45.4873C128.143 45.2113 127.773 44.7477 127.555 44.0915L123.575 31.3623L121.805 47.0498C121.68 48.1488 121.31 48.9404 120.7 49.4248C120.086 49.8936 119.018 50.1331 117.492 50.1331C116.393 50.1331 115.534 50.0186 114.909 49.7998C114.284 49.5915 113.971 49.4873 113.971 49.4873C113.971 49.4873 114.055 49.2738 114.221 48.8415C114.398 48.3988 114.539 47.7269 114.638 46.8206L117.263 22.779C117.346 21.6279 117.732 20.8363 118.43 20.404C119.138 19.9613 120.164 19.7373 121.513 19.7373C122.831 19.7373 123.857 19.9613 124.596 20.404C125.346 20.8363 125.877 21.6279 126.2 22.779L130.513 36.6123L134.825 22.779C135.159 21.6279 135.69 20.8363 136.43 20.404C137.164 19.9613 138.185 19.7373 139.492 19.7373C140.81 19.7373 141.815 19.9613 142.513 20.404C143.221 20.8363 143.638 21.6279 143.763 22.779Z" fill="#32620E"/>
<path d="M168.074 35.8623V46.7165C168.074 47.8154 168.136 48.5498 168.261 48.9248C168.386 49.2998 168.449 49.4873 168.449 49.4873C168.449 49.4873 168.167 49.5915 167.615 49.7998C167.074 50.0186 166.287 50.1331 165.261 50.1331C163.98 50.1331 163.016 49.93 162.365 49.529C161.709 49.1279 161.334 48.4561 161.24 47.5081C159.917 49.2581 157.891 50.1331 155.157 50.1331C152.709 50.1331 150.865 49.5654 149.615 48.4248C148.365 47.2894 147.74 45.654 147.74 43.529C147.74 41.3519 148.407 39.6748 149.74 38.5081C151.074 37.3311 152.938 36.7373 155.344 36.7373C156.646 36.7373 157.771 36.8779 158.719 37.154C159.678 37.4196 160.501 37.7165 161.199 38.0498V37.2165C161.199 34.2738 159.245 32.7998 155.344 32.7998C153.896 32.7998 152.751 33.0081 151.907 33.4248C151.074 33.8311 150.469 34.2477 150.094 34.6748C149.719 35.0915 149.532 35.2998 149.532 35.2998C149.532 35.2998 149.412 35.1123 149.178 34.7373C148.938 34.3623 148.824 33.7373 148.824 32.8623C148.824 31.5186 149.511 30.3988 150.886 29.5081C152.261 28.6227 154.459 28.1748 157.49 28.1748C161.167 28.1748 163.85 28.8363 165.532 30.154C167.225 31.4613 168.074 33.3623 168.074 35.8623ZM157.761 45.5081C158.761 45.5081 159.579 45.2061 160.219 44.5915C160.87 43.9821 161.199 43.0863 161.199 41.904V41.0081C160.85 40.8571 160.428 40.7321 159.928 40.6331C159.428 40.5394 158.865 40.4873 158.24 40.4873C155.865 40.4873 154.678 41.3154 154.678 42.9665C154.678 44.6644 155.704 45.5081 157.761 45.5081Z" fill="#32620E"/>
<path d="M181.885 28.2163C184.593 28.2163 185.947 29.4194 185.947 31.8205C185.947 32.6955 185.843 33.3153 185.635 33.6746C185.437 34.0392 185.343 34.2163 185.343 34.2163C185.343 34.2163 185.083 34.0288 184.572 33.6538C184.057 33.2788 183.208 33.0913 182.031 33.0913C180.489 33.0913 179.239 33.6851 178.281 34.8621C177.333 36.0288 176.864 37.8778 176.864 40.4038V46.758C176.864 47.8309 176.927 48.5601 177.052 48.9455C177.177 49.3361 177.239 49.5288 177.239 49.5288C177.239 49.5288 176.953 49.6278 176.385 49.8205C175.828 50.0288 175.036 50.133 174.01 50.133C172.604 50.133 171.583 49.8934 170.947 49.4246C170.307 48.9403 169.989 48.1121 169.989 46.9455V31.5913C169.989 30.4976 169.932 29.7528 169.822 29.3621C169.708 28.9767 169.656 28.7788 169.656 28.7788C169.656 28.7788 169.916 28.6903 170.447 28.508C170.989 28.3153 171.786 28.2163 172.843 28.2163C174.244 28.2163 175.265 28.4559 175.906 28.9246C176.541 29.3986 176.864 30.1955 176.864 31.3205V31.4038C177.958 29.2788 179.635 28.2163 181.885 28.2163Z" fill="#32620E"/>
<path d="M200.026 39.0915L206.005 46.8206C206.505 47.8206 206.932 48.5081 207.297 48.8831C207.656 49.2581 207.838 49.4456 207.838 49.4456C207.838 49.4456 207.599 49.5602 207.13 49.779C206.672 50.0134 205.755 50.1331 204.38 50.1331C203.213 50.1331 202.213 49.9561 201.38 49.6123C200.557 49.2529 199.948 48.6644 199.547 47.8415L193.984 41.4248V46.7581C193.984 47.8311 194.031 48.5602 194.13 48.9456C194.239 49.3363 194.297 49.529 194.297 49.529C194.297 49.529 194.026 49.6279 193.484 49.8206C192.943 50.029 192.135 50.1331 191.068 50.1331C189.693 50.1331 188.682 49.8936 188.047 49.4248C187.406 48.9404 187.088 48.1123 187.088 46.9456V21.0498C187.088 19.9665 187.026 19.2321 186.901 18.8415C186.776 18.4404 186.713 18.2373 186.713 18.2373C186.713 18.2373 186.984 18.1488 187.526 17.9665C188.078 17.7738 188.885 17.6748 189.943 17.6748C191.344 17.6748 192.364 17.9144 193.005 18.3831C193.656 18.8571 193.984 19.654 193.984 20.779V36.654L200.255 28.779C200.255 28.779 200.536 28.6904 201.109 28.5081C201.693 28.3154 202.656 28.2165 204.005 28.2165C205.338 28.2165 206.239 28.3154 206.713 28.5081C207.182 28.6904 207.422 28.779 207.422 28.779L200.026 39.0915Z" fill="#32620E"/>
<path d="M242.369 43.5288C242.369 43.5288 242.458 43.6538 242.64 43.9038C242.833 44.1538 242.931 44.6694 242.931 45.4455C242.931 46.8934 242.353 48.0392 241.202 48.883C240.046 49.7163 238.411 50.133 236.286 50.133C233.437 50.133 231.348 49.4403 230.015 48.0496C228.692 46.6642 228.036 44.7684 228.036 42.3621V25.2788C228.036 24.1851 227.973 23.4455 227.848 23.0705C227.723 22.6955 227.661 22.508 227.661 22.508C227.661 22.508 227.931 22.4142 228.473 22.2163C229.025 22.008 229.833 21.9038 230.89 21.9038C232.265 21.9038 233.275 22.1434 233.931 22.6121C234.598 23.0705 234.931 23.8778 234.931 25.0288V28.633H238.911C239.338 28.633 239.749 28.8361 240.14 29.2371C240.525 29.6278 240.723 30.3205 240.723 31.3205C240.723 32.2267 240.619 32.8205 240.411 33.1121C240.213 33.4038 240.119 33.5496 240.119 33.5496H234.931V40.8205C234.931 43.7267 236.254 45.1746 238.911 45.1746C239.786 45.1746 240.473 45.0392 240.973 44.758C241.473 44.4663 241.827 44.1903 242.036 43.9246C242.254 43.6642 242.369 43.5288 242.369 43.5288Z" fill="#32620E"/>
<path d="M248.209 50.133C246.927 50.133 245.938 49.784 245.229 49.0913C244.521 48.383 244.167 47.3778 244.167 46.0705C244.167 44.7788 244.521 43.7892 245.229 43.0913C245.938 42.383 246.927 42.0288 248.209 42.0288C249.485 42.0288 250.469 42.4038 251.167 43.1538C251.875 43.9038 252.229 44.8778 252.229 46.0705C252.229 47.3778 251.875 48.383 251.167 49.0913C250.469 49.784 249.485 50.133 248.209 50.133Z" fill="#32620E"/>
<path d="M266.425 28.2163C269.326 28.2163 271.487 29.0913 272.904 30.8413C274.321 32.5913 275.029 35.1538 275.029 38.5288C275.029 42.4871 273.972 45.4142 271.862 47.2996C269.763 49.1903 266.993 50.133 263.55 50.133C262.466 50.133 261.472 50.0809 260.571 49.9871V57.2996C260.571 58.3674 260.618 59.0965 260.716 59.4871C260.826 59.8726 260.883 60.0705 260.883 60.0705C260.883 60.0705 260.612 60.1642 260.071 60.3621C259.529 60.5705 258.722 60.6746 257.654 60.6746C256.279 60.6746 255.269 60.4299 254.633 59.9455C253.993 59.4559 253.675 58.6538 253.675 57.5288V31.5913C253.675 30.4976 253.612 29.7528 253.487 29.3621C253.362 28.9767 253.3 28.7788 253.3 28.7788C253.3 28.7788 253.571 28.6903 254.112 28.508C254.664 28.3153 255.472 28.2163 256.529 28.2163C257.904 28.2163 258.914 28.4559 259.571 28.9246C260.237 29.3986 260.571 30.1955 260.571 31.3205C261.222 30.1955 262.05 29.3986 263.05 28.9246C264.05 28.4559 265.175 28.2163 266.425 28.2163ZM262.946 45.1746C264.638 45.1746 265.93 44.6434 266.821 43.5705C267.706 42.4871 268.154 40.8101 268.154 38.5288C268.154 34.9038 266.868 33.0913 264.3 33.0913C263.216 33.0913 262.321 33.5392 261.612 34.4246C260.914 35.3153 260.571 36.8986 260.571 39.1746V44.9871C260.904 45.0444 261.269 45.0913 261.675 45.133C262.091 45.1642 262.513 45.1746 262.946 45.1746Z" fill="#32620E"/>
<path d="M296.099 39.2165C296.099 39.7581 295.933 40.2061 295.599 40.5498C295.277 40.8831 294.756 41.0498 294.037 41.0498H282.933C283.652 44.0238 285.792 45.5081 289.349 45.5081C290.641 45.5081 291.652 45.3154 292.391 44.9248C293.141 44.5238 293.688 44.1227 294.037 43.7165C294.381 43.3154 294.558 43.1123 294.558 43.1123C294.558 43.1123 294.652 43.2946 294.849 43.654C295.058 44.0186 295.162 44.6019 295.162 45.404C295.162 46.7529 294.422 47.8779 292.954 48.779C291.495 49.6852 289.5 50.1331 286.974 50.1331C284.777 50.1331 282.818 49.7425 281.099 48.9665C279.391 48.1904 278.042 46.9821 277.058 45.3415C276.068 43.7061 275.579 41.6331 275.579 39.1331C275.579 35.3571 276.527 32.5863 278.433 30.8206C280.349 29.0602 282.912 28.1748 286.12 28.1748C289.464 28.1748 291.964 29.0654 293.62 30.8415C295.271 32.6227 296.099 35.4144 296.099 39.2165ZM286.308 32.7998C285.375 32.7998 284.579 33.1279 283.912 33.779C283.256 34.4196 282.855 35.5915 282.704 37.2998H289.829C289.672 35.5915 289.292 34.4196 288.683 33.779C288.068 33.1279 287.277 32.7998 286.308 32.7998Z" fill="#32620E"/>
<path d="M226.593 39.2165C226.593 39.7581 226.426 40.2061 226.093 40.5498C225.77 40.8831 225.249 41.0498 224.531 41.0498H213.426C214.145 44.0238 216.286 45.5081 219.843 45.5081C221.135 45.5081 222.145 45.3154 222.885 44.9248C223.635 44.5238 224.182 44.1227 224.531 43.7165C224.874 43.3154 225.051 43.1123 225.051 43.1123C225.051 43.1123 225.145 43.2946 225.343 43.654C225.551 44.0186 225.656 44.6019 225.656 45.404C225.656 46.7529 224.916 47.8779 223.447 48.779C221.989 49.6852 219.994 50.1331 217.468 50.1331C215.27 50.1331 213.312 49.7425 211.593 48.9665C209.885 48.1904 208.536 46.9821 207.551 45.3415C206.562 43.7061 206.072 41.6331 206.072 39.1331C206.072 35.3571 207.02 32.5863 208.926 30.8206C210.843 29.0602 213.406 28.1748 216.614 28.1748C219.958 28.1748 222.458 29.0654 224.114 30.8415C225.765 32.6227 226.593 35.4144 226.593 39.2165ZM216.801 32.7998C215.869 32.7998 215.072 33.1279 214.406 33.779C213.749 34.4196 213.348 35.5915 213.197 37.2998H220.322C220.166 35.5915 219.786 34.4196 219.176 33.779C218.562 33.1279 217.77 32.7998 216.801 32.7998Z" fill="#32620E"/>
</svg>
