<svg width="61" height="60" viewBox="0 0 61 60" fill="none" xmlns="http://www.w3.org/2000/svg">
<path d="M60.3385 28.2448L58.5781 26.4792L57.599 15.7292C57.5781 15.4688 57.4531 15.224 57.25 15.0521L56.8646 14.7188L57.3385 10.9323C57.5313 9.40104 57.2969 7.84375 56.6719 6.4375L54.3333 1.17708C54.0156 0.458333 53.3281 0.0104173 52.5469 0H52.526C51.75 0 51.0677 0.437501 50.7396 1.14063L47.9583 7.09375C43.5469 3.90625 37.6875 3.29688 32.6823 5.60417L28.2135 7.67188L14.3385 3.71354C13.5208 3.55208 12.6615 3.74479 11.9844 4.23958C11.3073 4.72917 10.8594 5.48958 10.7552 6.34375L10.1094 12.6875C10.0677 13.0781 10.2604 13.4531 10.5938 13.6562L23.7552 21.5521L11.849 24.9531C11.8281 24.9583 11.8177 24.974 11.8021 24.9792C11.7812 24.9844 11.7656 24.9844 11.7448 24.9896C11.6979 25.0104 11.6667 25.0469 11.625 25.0729C11.5625 25.1042 11.5052 25.1354 11.4531 25.1823C11.4062 25.2292 11.3698 25.276 11.3333 25.3281C11.2917 25.3802 11.2552 25.4323 11.224 25.4896C11.1979 25.5469 11.1823 25.6094 11.1667 25.6719C11.151 25.7344 11.1302 25.7917 11.125 25.8594C11.1198 25.9219 11.1354 25.9896 11.1458 26.0573C11.151 26.1042 11.1406 26.1563 11.1562 26.2031C11.1615 26.224 11.1719 26.2396 11.1823 26.2604C11.1875 26.276 11.1823 26.2917 11.1875 26.3073L12.1146 28.5833C12.9271 30.5729 14.8385 31.9479 16.974 32.0833L25.4115 32.7135C27.401 32.8594 29.1563 34.0781 29.9948 35.8906L40.5156 58.6875C40.6875 59.0573 41.0521 59.276 41.4375 59.276C41.5781 59.276 41.7188 59.2448 41.8594 59.1823C42.3646 58.9479 42.5833 58.349 42.349 57.8385L31.8281 35.0417C30.6875 32.5677 28.2865 30.901 25.5625 30.6927L17.1094 30.0677C15.7344 29.9792 14.5104 29.099 13.9896 27.8177L13.4896 26.5885L26.5521 22.8542C26.9427 22.7448 27.224 22.4115 27.276 22.0156C27.3281 21.6146 27.1406 21.224 26.7969 21.0156L12.1875 12.2552L12.4583 9.60938C12.5938 9.61979 12.7344 9.63021 12.8698 9.63021C14.8698 9.63021 16.6979 8.52083 17.6146 6.74479L28.0208 9.71875C28.2552 9.78125 28.5052 9.76563 28.724 9.66146L33.5312 7.44271C37.9948 5.38021 43.2292 5.99479 47.0885 8.96354L44.5625 14.3802C44.3281 14.8906 44.5469 15.4896 45.0521 15.724C45.1875 15.7865 45.3333 15.8177 45.4792 15.8177C45.8594 15.8177 46.224 15.6042 46.3958 15.2344L49.2552 9.10417L52.4896 1.99479L54.8281 7.26042C55.3021 8.33333 55.4792 9.51563 55.3333 10.6823L53.5677 24.7917C53.5 25.3438 53.8906 25.849 54.4479 25.9167C54.4896 25.9219 54.5313 25.9271 54.5729 25.9271C55.0781 25.9271 55.5104 25.5521 55.5729 25.0417L56.0625 21.1406L56.599 27.0312C56.599 27.0833 56.625 27.1302 56.6406 27.1823C56.6562 27.2396 56.6667 27.2969 56.6875 27.349C56.724 27.4271 56.776 27.4896 56.8281 27.5573C56.849 27.5885 56.8594 27.625 56.8906 27.651L58.9115 29.6719C59.1094 29.8698 59.3646 29.9688 59.625 29.9688C59.8854 29.9688 60.1406 29.8698 60.3385 29.6719C60.7344 29.276 60.7344 28.6406 60.3385 28.2448ZM12.6615 7.59375L12.7708 6.5625C12.8021 6.28646 12.9479 6.03646 13.1771 5.86979C13.4062 5.70313 13.6771 5.64063 13.875 5.67708L15.5938 6.16667C14.9427 7.10938 13.849 7.66146 12.6615 7.59375ZM36.3802 10.7656C37.5 10.7656 38.401 11.6719 38.401 12.7865C38.401 13.9063 37.5 14.8073 36.3802 14.8073C35.2656 14.8073 34.3594 13.9063 34.3594 12.7865C34.3594 11.6719 35.2656 10.7656 36.3802 10.7656ZM1.15625 9.23438C1.44271 8.75521 2.0625 8.60417 2.54167 8.89063L7.59375 11.9219C8.07292 12.2083 8.22917 12.8281 7.94271 13.3073C7.75521 13.625 7.41667 13.7969 7.07812 13.7969C6.90104 13.7969 6.71875 13.75 6.55729 13.651L1.50521 10.6198C1.02604 10.3333 0.869793 9.71354 1.15625 9.23438ZM6.06771 18.8542H1.01042C0.453125 18.8542 0 18.401 0 17.8438C0 17.2812 0.453125 16.8281 1.01042 16.8281H6.06771C6.625 16.8281 7.07812 17.2812 7.07812 17.8438C7.07812 18.401 6.625 18.8542 6.06771 18.8542ZM8.875 21.25C9.22396 21.6875 9.15104 22.3229 8.71875 22.6719L3.66667 26.7135C3.47917 26.8646 3.25521 26.9375 3.03646 26.9375C2.73958 26.9375 2.44271 26.8073 2.24479 26.5573C1.89583 26.1198 1.96875 25.4844 2.40104 25.1354L7.45833 21.0938C7.89063 20.7448 8.52604 20.8177 8.875 21.25Z" fill="black"/>
</svg>
